<?xml version="1.0" standalone="no"?>
<!DOCTYPE svg PUBLIC "-//W3C//DTD SVG 20010904//EN"
 "http://www.w3.org/TR/2001/REC-SVG-20010904/DTD/svg10.dtd">
<svg version="1.0" xmlns="http://www.w3.org/2000/svg"
 width="260.000000pt" height="260.000000pt" viewBox="0 0 260.000000 260.000000"
 preserveAspectRatio="xMidYMid meet">
<metadata>
Created by potrace 1.14, written by Peter Selinger 2001-2017
</metadata>
<g transform="translate(0.000000,260.000000) scale(0.100000,-0.100000)"
fill="#000000" stroke="none">
<path d="M0 2100 l0 -500 25 -6 c13 -3 27 -15 30 -25 4 -11 10 -17 15 -14 5 3
14 -4 20 -15 7 -12 25 -22 50 -26 22 -4 37 -10 34 -15 -3 -5 -15 -7 -28 -3
-12 3 -34 1 -48 -5 -25 -9 -27 -8 -31 17 l-3 27 -11 -25 -11 -25 -12 28 c-21
44 -30 31 -30 -44 l0 -71 27 5 28 6 -28 -12 -27 -11 0 -273 c1 -150 4 -273 8
-273 4 0 38 27 75 60 71 63 83 70 73 45 -4 -13 -2 -13 14 -5 10 5 27 10 37 9
10 0 13 -3 5 -6 -6 -2 -10 -9 -6 -14 10 -17 24 -9 25 14 l0 22 9 -23 c11 -27
24 -30 15 -3 -3 11 -1 22 5 26 6 4 10 3 9 -2 -4 -22 3 -25 17 -7 8 10 13 12 9
4 -4 -8 3 -4 14 9 12 13 21 19 21 14 0 -8 125 0 172 11 9 2 20 -4 23 -13 6
-14 8 -13 15 4 8 19 9 19 9 1 1 -18 3 -18 28 5 14 13 23 18 19 12 -4 -7 -2
-13 3 -13 6 0 11 4 11 9 0 4 11 6 25 3 14 -2 23 -8 20 -11 -2 -4 2 -8 10 -8 8
0 12 4 10 8 -3 4 2 9 10 13 19 7 31 -14 14 -25 -9 -6 -10 -9 -2 -9 6 0 15 5
18 10 4 6 11 7 17 4 7 -4 8 -2 4 4 -4 7 0 13 11 14 33 2 38 3 50 11 8 5 13 3
13 -5 0 -8 3 -9 8 -3 4 6 14 10 22 10 8 -1 20 2 25 6 6 3 17 7 25 7 8 1 31 3
50 5 19 3 46 0 59 -5 17 -6 27 -5 32 3 4 7 14 9 23 6 8 -3 18 -2 21 3 4 6 -6
10 -20 10 -14 0 -24 4 -21 9 4 5 -2 7 -13 4 -22 -6 -38 14 -23 29 6 6 8 25 5
42 -3 20 0 36 9 43 10 9 13 5 15 -20 1 -17 8 -34 15 -39 21 -13 55 -9 72 8 20
19 20 32 2 30 -8 0 -15 2 -15 7 -1 4 0 6 2 5 1 -2 15 7 31 20 16 12 36 22 45
22 14 0 14 2 1 10 -9 6 -17 5 -23 -3 -6 -9 -10 -9 -13 -1 -5 13 -67 8 -96 -7
-10 -5 -18 -6 -17 -2 3 18 -1 36 -7 30 -4 -4 -15 11 -26 33 -13 25 -24 37 -34
33 -9 -3 -14 1 -14 12 0 9 -4 13 -10 10 -5 -3 -10 -2 -10 4 0 6 -7 8 -15 4
-19 -7 -13 -29 5 -25 11 3 11 0 0 -13 -10 -12 -16 -13 -26 -4 -8 6 -14 8 -14
4 0 -4 -6 -2 -13 4 -8 6 -18 7 -23 3 -4 -4 -3 0 4 9 6 9 8 20 4 25 -4 5 4 0
17 -11 14 -11 21 -14 17 -7 -9 16 25 51 54 57 11 2 27 8 37 13 11 7 25 6 41
-1 18 -8 25 -8 32 3 5 8 7 17 4 21 -2 4 7 6 21 3 14 -2 25 -1 25 4 0 21 -29
42 -67 48 -35 5 -42 4 -45 -12 -3 -17 -6 -16 -31 8 -31 31 -33 45 -13 92 12
29 20 34 61 41 53 7 95 24 95 36 0 5 6 6 14 3 7 -3 23 7 35 22 12 15 23 25 25
23 7 -7 -48 -88 -60 -89 -6 0 -19 -9 -29 -20 -9 -10 -22 -18 -29 -17 -6 1 -10
-6 -8 -15 1 -9 -2 -19 -8 -23 -6 -4 -7 1 -3 10 4 13 1 16 -13 13 -32 -6 -22
-22 31 -48 28 -14 68 -36 88 -49 30 -18 45 -21 80 -16 23 4 57 16 74 27 27 16
32 17 27 4 -3 -8 -11 -14 -17 -13 -7 1 -11 -4 -9 -11 1 -8 -2 -11 -7 -8 -5 3
-14 -1 -21 -9 -8 -9 -21 -13 -34 -10 -17 5 -16 2 7 -15 15 -12 25 -25 23 -28
-4 -7 20 -11 73 -13 16 -1 20 -3 11 -9 -10 -6 -8 -11 8 -19 21 -11 51 -5 65
13 4 6 5 -1 3 -17 -3 -15 -1 -25 5 -22 5 4 9 13 9 20 0 9 6 12 17 8 11 -4 14
-3 9 5 -4 7 -2 12 4 12 7 0 10 -6 7 -14 -4 -9 4 -16 24 -20 16 -3 29 -9 28
-13 -3 -21 2 -33 15 -33 7 0 16 -10 19 -22 5 -21 5 -21 -7 -5 -16 21 -23 21
-43 2 -14 -14 -13 -18 3 -38 42 -48 44 -50 44 -32 0 20 32 16 37 -5 4 -12 3
-12 -5 -2 -8 11 -10 11 -15 -1 -3 -7 -1 -20 3 -27 7 -11 13 -10 34 3 28 19 46
22 46 8 0 -5 -16 -15 -36 -21 -33 -11 -35 -14 -18 -23 10 -6 27 -21 37 -33 9
-13 35 -31 58 -40 23 -11 38 -23 35 -31 -3 -7 1 -10 10 -6 7 3 14 8 14 12 0
17 75 41 128 41 52 0 63 4 111 40 29 22 62 40 73 40 18 0 20 5 14 38 -3 20 -3
31 0 24 3 -6 11 -9 17 -5 19 12 44 10 44 -2 0 -7 -8 -10 -18 -8 -9 3 -20 0
-23 -6 -4 -6 18 -8 65 -5 40 2 69 1 65 -3 -4 -5 -12 -8 -17 -8 -23 0 -7 -21
22 -29 47 -14 135 -104 149 -153 14 -47 5 -122 -12 -105 -6 6 -8 29 -6 52 3
36 2 39 -9 23 -12 -15 -16 -16 -34 -5 -18 12 -24 11 -45 -9 -13 -12 -21 -25
-19 -29 2 -4 -4 -16 -15 -27 -14 -16 -16 -23 -7 -33 9 -10 9 -11 0 -6 -8 4
-13 2 -14 -6 -9 -103 -11 -119 -18 -113 -9 10 -9 35 0 35 5 0 9 10 9 23 -1 20
-2 20 -11 5 -11 -19 -49 -25 -49 -8 0 6 -6 9 -12 8 -7 -2 -11 4 -10 12 2 8 0
12 -4 8 -4 -4 -12 -4 -18 1 -6 4 -19 11 -29 14 -13 5 -17 2 -15 -11 2 -10 -3
-17 -14 -17 -10 0 -23 -6 -30 -13 -6 -6 -16 -12 -22 -12 -5 0 -2 6 7 12 9 7
19 32 23 56 5 34 4 42 -9 42 -19 0 -57 -50 -58 -77 0 -16 -1 -16 -9 2 -5 11
-9 15 -9 8 -1 -6 -4 -19 -7 -27 -5 -12 -2 -15 10 -10 9 3 16 1 16 -6 0 -6 5
-8 10 -5 6 3 10 2 10 -3 0 -6 7 -9 16 -8 9 0 19 -5 21 -11 3 -7 0 -13 -7 -13
-6 0 -8 5 -4 12 5 7 3 8 -6 3 -10 -6 -7 -12 11 -27 20 -15 21 -17 4 -12 -11 4
-24 10 -30 14 -5 4 -27 13 -47 19 -21 7 -38 15 -38 18 0 9 35 68 45 75 8 6
-34 28 -55 28 -5 0 -6 15 -3 33 4 28 1 35 -21 45 -14 6 -28 23 -32 38 -5 19
-9 22 -15 12 -6 -9 -9 -5 -9 15 0 31 -7 33 -38 11 -29 -20 -28 -42 1 -49 26
-7 28 -26 9 -62 -7 -12 -12 -29 -12 -38 0 -9 -4 -14 -9 -11 -4 3 -17 -4 -27
-16 -11 -12 -13 -18 -6 -14 7 4 12 1 12 -9 0 -9 -4 -14 -8 -11 -4 2 -14 1 -22
-5 -12 -7 -9 -9 10 -9 25 0 68 -23 82 -44 4 -6 5 -19 2 -28 -4 -14 -1 -16 13
-11 17 7 17 6 1 -11 -24 -24 -23 -43 1 -22 11 10 26 16 33 13 9 -4 8 -6 -3 -6
-9 -1 -20 -8 -23 -17 -9 -23 -7 -36 4 -29 5 3 5 -7 -1 -24 -9 -25 -7 -36 10
-64 l20 -33 218 3 c120 1 222 2 226 2 18 2 -15 41 -34 41 -13 0 -18 -4 -13
-12 5 -10 4 -10 -5 -2 -13 12 -4 47 10 38 5 -3 9 5 9 18 0 19 2 20 10 8 8 -11
10 -5 8 25 -2 24 -8 39 -15 38 -6 -1 -14 4 -17 13 -4 10 3 16 22 20 27 6 57
48 46 65 -3 5 2 16 10 25 9 9 13 20 10 26 -4 6 -2 8 4 4 6 -3 12 3 15 16 3 17
5 14 6 -9 0 -18 -3 -33 -9 -33 -18 0 -10 -19 11 -25 11 -4 33 -19 48 -33 47
-45 152 -98 165 -85 3 4 6 118 6 255 l0 248 -42 1 c-24 1 -56 3 -73 4 -16 2
-38 3 -47 4 -10 1 -18 8 -18 17 0 9 5 12 12 8 7 -5 21 -9 30 -9 13 -1 15 2 7
11 -8 9 -3 10 23 5 18 -4 50 -6 71 -3 l37 4 0 74 c0 81 -5 86 -75 81 -16 -1
-36 2 -42 7 -7 4 -13 5 -13 0 0 -5 -5 -2 -10 6 -6 10 -10 11 -10 3 0 -8 -14
-13 -37 -13 -26 0 -33 3 -24 9 9 6 0 8 -27 8 -23 0 -39 -4 -36 -8 2 -4 -12 -7
-31 -6 -20 1 -35 6 -35 13 0 8 -12 11 -37 8 -37 -5 -155 -5 -159 -1 -1 1 -4
18 -8 39 -6 34 -5 36 15 31 17 -5 20 -3 14 7 -5 9 -4 11 4 6 6 -4 9 -12 6 -17
-4 -5 10 -9 30 -9 22 0 34 4 30 10 -3 6 1 13 9 16 24 9 20 33 -4 27 -12 -3
-20 0 -20 6 0 7 -5 9 -12 5 -8 -5 -9 -2 -4 11 5 15 4 16 -8 6 -11 -9 -15 -9
-19 1 -3 7 -6 4 -6 -7 -1 -16 -3 -17 -11 -5 -8 13 -9 13 -14 0 -2 -8 -7 -22
-9 -30 -3 -8 -6 2 -6 24 -1 30 2 37 15 32 8 -3 13 -2 10 3 -3 5 1 12 10 15 10
4 13 2 8 -7 -5 -8 -2 -7 9 2 24 19 122 9 215 -23 67 -23 224 -117 252 -151 7
-8 16 -15 21 -15 13 0 11 44 -3 58 -9 9 -9 15 0 24 7 7 12 21 12 32 0 16 -3
17 -12 8 -14 -14 -58 -16 -58 -3 0 10 -117 86 -148 95 -43 14 -45 32 -8 69 42
42 132 67 179 49 15 -6 25 -6 21 -1 -3 5 2 9 10 9 9 0 16 4 16 9 0 11 -134 24
-160 16 -19 -6 -20 -3 -15 52 6 62 1 57 -30 -27 -13 -35 -29 -54 -71 -83 l-54
-38 -92 16 c-100 18 -114 23 -81 31 16 4 21 13 20 32 -2 25 1 27 46 30 26 2
47 8 47 13 0 6 21 8 50 5 69 -7 54 11 -17 20 -37 4 -63 3 -75 -5 -35 -22 -41
-11 -11 22 16 17 33 40 37 51 5 15 2 18 -18 14 -21 -4 -23 -2 -15 21 14 43 18
52 58 141 22 47 37 88 35 91 -2 4 -20 3 -39 -1 -39 -9 -68 11 -47 32 15 15 15
28 1 28 -14 0 -73 -65 -120 -132 -22 -32 -44 -58 -50 -58 -5 0 -15 -13 -20
-30 l-11 -29 -23 27 c-31 36 -41 23 -16 -19 20 -34 20 -34 0 -94 -23 -71 -33
-83 -54 -65 -8 7 -26 10 -40 8 -14 -3 -29 0 -33 7 -4 8 -14 9 -27 4 l-20 -8
20 -1 c17 -2 16 -3 -5 -9 -31 -9 -50 -3 -44 14 3 7 1 16 -5 20 -7 4 -8 0 -4
-11 5 -13 3 -15 -7 -9 -7 5 -11 4 -7 -1 6 -11 -109 -12 -119 -1 -4 4 -15 7
-25 7 -10 0 -31 11 -46 25 l-28 24 54 1 c71 0 61 9 -16 13 -47 2 -70 10 -107
34 l-47 32 20 20 c12 12 31 21 44 22 33 1 81 10 87 15 3 3 -3 10 -13 15 -9 6
-15 14 -13 18 3 4 -5 8 -16 8 -12 1 -25 6 -30 11 -5 5 13 6 42 2 27 -4 50 -4
50 0 0 4 23 5 52 3 33 -1 55 2 60 10 6 9 8 9 8 0 0 -7 5 -13 11 -13 5 0 7 6 3
13 -6 9 -4 9 7 0 16 -16 133 -18 124 -3 -3 6 1 10 9 10 9 0 16 5 16 11 0 6 -9
9 -20 6 -11 -3 -20 0 -20 6 0 8 -3 8 -8 2 -9 -13 -42 -16 -42 -4 0 5 -5 9 -11
9 -5 0 -7 -5 -3 -11 4 -8 1 -8 -12 -1 -11 5 -98 13 -194 17 -96 4 -177 9 -179
11 -2 2 12 4 31 4 20 0 41 6 47 14 7 8 34 14 73 15 80 2 89 11 12 12 -115 2
-161 7 -182 18 -15 8 -21 8 -24 -1 -3 -7 -7 -3 -10 8 -4 17 -1 20 16 17 11 -2
32 0 46 6 25 10 25 10 2 10 -13 1 -21 5 -17 10 3 5 -2 16 -10 25 -19 18 -13
22 50 31 28 4 59 13 70 19 16 9 -22 12 -170 18 -104 3 -201 8 -215 11 -14 2
-28 5 -32 6 -5 0 -8 4 -8 9 0 8 9 8 355 17 127 3 241 7 255 9 14 2 51 4 83 5
34 0 57 5 57 12 0 6 -6 9 -14 6 -8 -3 -16 -1 -19 6 -2 8 -35 13 -90 15 -48 2
-87 7 -87 12 0 4 -12 5 -27 3 -21 -3 -24 -2 -14 5 8 6 24 8 37 6 12 -2 26 1
30 7 4 8 3 9 -4 5 -7 -4 -12 -2 -12 3 0 10 41 16 82 12 13 -2 16 3 12 14 -5
13 -2 14 20 5 16 -6 25 -6 21 -1 -3 5 -1 12 5 16 5 3 10 1 10 -4 0 -6 7 -11
17 -11 13 0 11 4 -7 20 -13 11 -18 20 -12 20 7 0 11 3 11 8 -4 22 3 34 16 28
8 -3 15 -1 15 4 0 6 3 9 8 9 22 -4 42 2 37 11 -6 9 8 14 28 11 4 0 7 4 7 10 0
6 6 9 13 7 6 -3 28 1 47 8 29 10 -46 13 -463 13 -305 1 -496 -3 -492 -8 3 -5
0 -13 -6 -17 -7 -4 -9 -3 -5 4 3 6 2 13 -3 16 -5 3 -12 -1 -15 -10 -9 -23 -8
-24 16 -24 12 0 19 -3 15 -6 -10 -10 -58 5 -52 16 3 6 -2 10 -12 11 -16 0 -16
1 2 9 11 5 -178 9 -432 9 l-453 1 0 -500z m987 454 c-3 -3 -12 -4 -19 -1 -8 3
-5 6 6 6 11 1 17 -2 13 -5z m-656 -68 c9 -28 8 -28 -10 -12 -12 11 -17 25 -13
44 3 16 7 21 9 12 3 -8 9 -28 14 -44z m56 -157 c18 -46 33 -88 33 -94 1 -5 9
-28 20 -50 22 -45 24 -55 12 -55 -5 0 -13 10 -18 23 -6 12 -9 16 -7 9 1 -7 -2
-10 -8 -7 -5 4 -9 15 -7 24 3 16 -7 42 -35 96 -5 11 -12 33 -14 49 -1 16 -9
34 -17 40 -26 22 -28 62 -2 53 5 -2 25 -41 43 -88z m617 -17 c2 -4 -7 -8 -22
-9 -24 -2 -24 -1 -7 7 11 5 21 9 22 9 1 1 4 -3 7 -7z m-505 -58 c10 -9 -35 -3
-49 6 -11 8 -7 9 15 4 17 -4 32 -8 34 -10z m95 -13 c17 -5 50 -15 74 -21 23
-6 42 -16 42 -22 0 -9 -3 -9 -12 0 -16 16 -52 16 -42 0 4 -7 3 -8 -5 -4 -6 4
-9 12 -5 18 3 5 -8 2 -25 -6 -17 -9 -31 -12 -31 -6 0 5 6 10 13 11 6 0 -3 5
-22 10 -40 12 -52 4 -25 -16 18 -13 18 -14 -3 -8 -13 3 -23 13 -23 23 0 10 -6
21 -12 23 -23 10 45 7 76 -2z m201 -53 c16 -7 24 -17 20 -26 -4 -11 -2 -12 8
-4 14 12 99 -23 146 -59 13 -11 41 -24 62 -29 22 -6 39 -15 39 -20 0 -14 -18
-12 -22 2 -4 10 -10 10 -32 0 -15 -7 -25 -8 -22 -3 3 5 -1 12 -10 15 -8 3 -12
2 -9 -3 6 -10 -11 -24 -32 -27 -6 -1 -9 4 -6 12 3 8 0 14 -6 14 -6 0 -11 -6
-11 -12 0 -9 -4 -8 -10 2 -9 13 -11 13 -19 0 -6 -8 -13 -11 -17 -8 -3 4 1 15
10 24 20 19 16 40 -8 38 -9 -1 -16 5 -16 13 0 10 -6 13 -16 9 -10 -4 -13 -2
-8 6 5 7 2 9 -9 5 -11 -4 -18 1 -22 14 -7 22 -50 43 -72 35 -7 -3 -13 -1 -13
4 0 14 44 12 75 -2z m480 -38 c3 -5 -1 -10 -10 -10 -9 0 -13 5 -10 10 3 6 8
10 10 10 2 0 7 -4 10 -10z m-798 -76 c-3 -3 -12 -4 -19 -1 -8 3 -5 6 6 6 11 1
17 -2 13 -5z m666 -55 c-14 -12 -72 2 -67 16 4 10 13 10 40 2 19 -6 31 -14 27
-18z m-608 -29 c14 -22 25 -42 25 -44 0 -12 -38 8 -49 26 -7 11 -8 17 -2 13 6
-3 11 -1 11 4 0 6 -6 11 -13 11 -8 0 -14 7 -14 15 0 26 16 17 42 -25z m515 20
c8 -5 11 -10 5 -10 -5 0 -17 5 -25 10 -8 5 -10 10 -5 10 6 0 17 -5 25 -10z
m290 -214 c0 -3 -4 -8 -10 -11 -5 -3 -10 -1 -10 4 0 6 5 11 10 11 6 0 10 -2
10 -4z m-139 -75 c-7 -13 -18 -18 -33 -14 -18 4 -20 3 -8 -6 12 -8 10 -10 -9
-8 l-23 1 21 17 c12 10 20 22 19 28 -2 5 6 16 17 25 18 13 20 13 23 -4 2 -11
-1 -28 -7 -39z m257 -20 c-7 -9 -14 -18 -15 -20 -2 -2 -3 5 -3 16 0 11 7 20
15 20 12 0 12 -3 3 -16z m286 8 c-5 -8 -1 -8 14 0 15 8 22 8 25 -2 4 -8 8 -9
14 -1 8 10 93 14 93 3 0 -3 -13 -21 -30 -39 -16 -18 -30 -38 -30 -44 0 -6 4
-4 10 4 5 8 11 12 14 9 3 -3 -1 -14 -9 -25 -13 -16 -16 -17 -25 -4 -9 13 -10
13 -11 0 -1 -8 -1 -21 0 -27 3 -23 -17 -14 -23 10 -3 13 -30 47 -60 75 l-55
52 40 0 c27 0 38 -4 33 -11z m-251 -29 c-3 -11 -7 -20 -9 -20 -2 0 -4 9 -4 20
0 11 4 20 9 20 5 0 7 -9 4 -20z m-413 -35 c-7 -9 -15 -13 -19 -10 -3 3 1 10 9
15 21 14 24 12 10 -5z m270 -3 c24 -20 19 -52 -10 -52 -10 0 -35 -16 -56 -35
-41 -37 -59 -43 -67 -21 -11 29 60 126 94 126 9 0 27 -8 39 -18z m-472 -96
c-8 -27 -14 -32 -23 -23 -9 9 -10 14 -1 19 6 4 7 8 1 8 -8 1 23 30 31 30 1 0
-3 -15 -8 -34z m802 4 c12 -7 10 -9 -8 -7 -12 0 -22 5 -22 9 0 11 12 10 30 -2z
m-1402 -34 c59 -31 222 -69 301 -70 67 -1 78 -3 71 -16 -6 -11 -22 -15 -58
-13 -42 2 -50 0 -47 -15 1 -9 0 -12 -2 -7 -6 16 -60 37 -86 33 -13 -1 -31 3
-40 11 -9 7 -22 11 -29 9 -7 -3 -19 1 -26 9 -8 7 -18 10 -24 7 -7 -5 -8 -2 -3
6 6 10 4 12 -8 7 -9 -3 -18 -1 -21 6 -3 8 -7 9 -13 2 -4 -5 -17 -11 -28 -12
-11 -1 -14 0 -7 3 25 11 12 26 -18 20 -19 -3 -29 -2 -25 4 3 6 1 10 -4 10 -6
0 -11 5 -11 10 0 15 48 12 78 -4z m1472 -1 c13 -15 6 -35 -12 -35 -6 0 -8 3
-5 6 3 4 2 15 -4 25 -12 23 3 25 21 4z m-461 -18 c-2 -1 -15 -11 -29 -22 l-25
-20 19 23 c11 12 24 22 29 22 6 0 8 -1 6 -3z m536 -106 c6 -21 5 -22 -8 -10
-8 8 -13 17 -11 21 2 4 0 9 -6 13 -6 4 -7 11 -4 17 7 12 17 -2 29 -41z m-1705
29 c0 -5 -15 -9 -32 -9 l-33 1 30 8 c17 4 31 8 33 9 1 0 2 -3 2 -9z m47 4 c-3
-3 -12 -4 -19 -1 -8 3 -5 6 6 6 11 1 17 -2 13 -5z m1614 -11 c13 -16 12 -17
-3 -4 -10 7 -18 15 -18 17 0 8 8 3 21 -13z m93 -18 c5 -22 4 -26 -4 -15 -5 8
-10 24 -10 34 0 26 6 18 14 -19z m-1581 18 c-7 -2 -21 -2 -30 0 -10 3 -4 5 12
5 17 0 24 -2 18 -5z m1567 -73 c6 -11 8 -20 6 -20 -3 0 -10 9 -16 20 -6 11 -8
20 -6 20 3 0 10 -9 16 -20z m510 6 c0 -3 -4 -8 -10 -11 -5 -3 -10 -1 -10 4 0
6 5 11 10 11 6 0 10 -2 10 -4z m-1619 -39 c-10 -9 -11 -8 -5 6 3 10 9 15 12
12 3 -3 0 -11 -7 -18z m1814 -107 c3 -5 1 -10 -4 -10 -6 0 -11 5 -11 10 0 6 2
10 4 10 3 0 8 -4 11 -10z m-870 -10 c-3 -5 1 -10 9 -10 9 0 16 -5 16 -11 0 -5
-4 -7 -10 -4 -5 3 -10 2 -10 -3 0 -6 -7 -12 -15 -16 -9 -3 -15 0 -15 10 0 8 5
12 10 9 6 -3 10 -1 10 4 0 6 -6 11 -12 11 -9 0 -8 4 2 10 19 12 23 12 15 0z
m265 -25 c-7 -8 -17 -15 -23 -15 -6 0 -2 7 9 15 25 19 30 19 14 0z m-40 -85
c-18 -11 -22 -7 -14 14 5 13 10 14 18 6 8 -8 7 -13 -4 -20z m45 21 c3 -5 2
-12 -3 -15 -5 -3 -9 1 -9 9 0 17 3 19 12 6z m-1665 -15 c0 -9 -63 -35 -71 -30
-5 3 -12 -2 -15 -10 -4 -12 -16 -15 -40 -12 -19 3 -34 0 -34 -5 0 -5 5 -9 12
-9 6 0 8 -3 5 -6 -4 -4 -13 -1 -22 6 -10 8 -15 9 -15 1 0 -6 -5 -11 -11 -11
-5 0 -8 4 -5 9 4 5 -5 4 -19 -2 -22 -11 -23 -13 -9 -24 15 -11 14 -12 -4 -10
-11 0 -19 6 -17 12 7 33 20 44 58 50 23 4 49 9 57 11 23 5 125 32 128 33 1 1
2 -1 2 -3z m554 -52 c3 -8 2 -12 -4 -9 -6 3 -10 10 -10 16 0 14 7 11 14 -7z
m-819 -104 c-20 -23 -29 -21 -19 4 3 9 11 13 17 9 7 -4 8 0 3 13 -6 15 -5 16
5 7 10 -10 9 -17 -6 -33z m55 36 c0 -2 -7 -6 -15 -10 -8 -3 -15 -1 -15 4 0 6
7 10 15 10 8 0 15 -2 15 -4z m2013 -293 c-7 -2 -21 -2 -30 0 -10 3 -4 5 12 5
17 0 24 -2 18 -5z m187 -38 c0 -8 -7 -15 -16 -15 -14 0 -14 3 -4 15 7 8 14 15
16 15 2 0 4 -7 4 -15z"/>
<path d="M914 2099 c-3 -6 0 -15 7 -20 14 -8 32 9 23 23 -7 11 -22 10 -30 -3z"/>
<path d="M1953 2593 c9 -2 23 -2 30 0 6 3 -1 5 -18 5 -16 0 -22 -2 -12 -5z"/>
<path d="M1735 2511 c-10 -9 7 -21 18 -13 7 6 21 12 32 15 11 3 5 5 -13 4 -18
-1 -35 -3 -37 -6z"/>
<path d="M1820 2359 c-21 -6 -19 -7 13 -6 20 0 37 1 37 3 0 7 -29 10 -50 3z"/>
<path d="M1755 2260 c3 -5 8 -10 11 -10 2 0 4 5 4 10 0 6 -5 10 -11 10 -5 0
-7 -4 -4 -10z"/>
<path d="M1788 2263 c7 -3 16 -2 19 1 4 3 -2 6 -13 5 -11 0 -14 -3 -6 -6z"/>
<path d="M1813 2255 c-10 -11 -7 -13 20 -12 18 0 44 -2 60 -6 15 -3 27 -2 27
2 0 5 11 6 25 3 27 -5 35 12 9 22 -30 12 -129 6 -141 -9z"/>
<path d="M1430 2089 c0 -5 5 -7 10 -4 6 3 10 8 10 11 0 2 -4 4 -10 4 -5 0 -10
-5 -10 -11z"/>
<path d="M1861 2034 c0 -11 3 -14 6 -6 3 7 2 16 -1 19 -3 4 -6 -2 -5 -13z"/>
<path d="M1638 1773 c6 -2 18 -2 25 0 6 3 1 5 -13 5 -14 0 -19 -2 -12 -5z"/>
<path d="M2170 1429 c0 -5 5 -7 10 -4 6 3 10 8 10 11 0 2 -4 4 -10 4 -5 0 -10
-5 -10 -11z"/>
<path d="M2218 1433 c12 -2 30 -2 40 0 9 3 -1 5 -23 4 -22 0 -30 -2 -17 -4z"/>
<path d="M2280 1436 c0 -2 9 -6 20 -9 11 -3 20 -1 20 4 0 5 -9 9 -20 9 -11 0
-20 -2 -20 -4z"/>
<path d="M2330 1429 c0 -5 5 -7 10 -4 6 3 10 8 10 11 0 2 -4 4 -10 4 -5 0 -10
-5 -10 -11z"/>
<path d="M2490 1349 c0 -5 5 -7 10 -4 6 3 10 8 10 11 0 2 -4 4 -10 4 -5 0 -10
-5 -10 -11z"/>
<path d="M1230 1307 c0 -14 24 -57 32 -57 13 0 10 10 -12 37 -11 14 -20 23
-20 20z"/>
<path d="M1485 1290 c-3 -6 1 -7 9 -4 18 7 21 14 7 14 -6 0 -13 -4 -16 -10z"/>
<path d="M1293 1253 c4 -6 0 -13 -8 -17 -9 -3 -14 -16 -13 -31 2 -16 7 -24 15
-21 10 4 10 1 0 -17 -6 -12 -14 -24 -17 -27 -3 -3 -6 -14 -7 -25 -1 -11 -5
-31 -8 -45 -5 -21 -5 -22 5 -7 6 9 16 17 21 17 6 0 7 -4 4 -10 -3 -5 -2 -10 3
-10 5 0 19 -9 32 -20 13 -11 19 -20 13 -20 -5 0 -10 -7 -10 -15 0 -19 28 -19
71 -1 18 8 46 11 61 9 25 -5 26 -4 17 14 -8 15 -18 19 -41 15 -23 -3 -31 0
-31 10 0 15 -30 48 -45 48 -4 0 -2 -7 5 -15 16 -20 6 -19 -25 1 -14 9 -25 24
-25 33 1 14 2 14 14 -2 7 -9 20 -15 28 -12 8 3 21 -1 28 -9 7 -9 16 -13 21
-10 5 3 9 0 9 -5 0 -19 17 -12 23 9 3 11 1 18 -4 14 -11 -6 -51 20 -43 29 12
12 -7 28 -21 17 -10 -8 -14 -4 -20 17 -7 26 -8 26 -15 8 -7 -17 -12 -11 -9 11
0 4 -5 11 -13 16 -9 7 -7 8 8 4 29 -9 27 15 -4 39 -14 10 -22 14 -19 8z"/>
<path d="M1208 1209 c-16 -9 -16 -12 4 -51 l22 -42 14 34 c20 49 -2 81 -40 59z"/>
<path d="M1186 1120 c-16 -32 -13 -56 5 -45 5 4 9 1 9 -5 0 -6 5 -8 10 -5 12
8 13 55 1 74 -6 10 -13 5 -25 -19z"/>
<path d="M1269 1048 c-4 -8 -6 -68 -2 -68 2 0 8 10 14 23 l10 22 -5 -22 c-5
-30 17 -48 41 -34 16 9 16 10 -6 11 -17 0 -22 4 -17 16 9 23 -2 54 -20 54 -8
0 -15 -1 -15 -2z"/>
<path d="M1501 1024 c0 -11 3 -14 6 -6 3 7 2 16 -1 19 -3 4 -6 -2 -5 -13z"/>
<path d="M1130 1012 c0 -12 19 -26 26 -19 2 2 -2 10 -11 17 -9 8 -15 8 -15 2z"/>
<path d="M1170 1001 c0 -5 5 -13 10 -16 6 -3 10 -2 10 4 0 5 -4 13 -10 16 -5
3 -10 2 -10 -4z"/>
<path d="M1205 990 c3 -5 15 -10 26 -10 11 0 17 5 14 10 -3 6 -15 10 -26 10
-11 0 -17 -4 -14 -10z"/>
<path d="M1939 955 c-28 -52 -20 -78 25 -83 30 -4 80 23 71 38 -13 21 7 9 29
-17 18 -21 22 -33 15 -50 -6 -17 -5 -21 6 -17 8 3 29 -6 48 -20 19 -14 41 -26
50 -26 20 0 43 71 32 97 -5 10 -8 25 -7 33 1 10 0 11 -4 3 -7 -16 -34 -17 -34
-2 0 5 -4 8 -9 5 -5 -3 -14 1 -21 9 -11 13 -10 14 5 9 12 -5 16 -3 14 5 -3 7
-7 11 -9 10 -12 -6 -50 23 -50 39 -1 16 -1 16 -14 0 -7 -10 -16 -14 -20 -10
-4 4 -11 7 -14 7 -4 1 -18 5 -31 9 -16 6 -26 4 -32 -5 -7 -11 -11 -12 -17 -1
-6 9 -16 0 -33 -33z"/>
<path d="M1685 981 c6 -10 4 -13 -6 -9 -9 4 -15 -1 -15 -12 0 -21 29 -16 48 9
7 9 8 13 4 9 -5 -4 -16 -2 -24 5 -13 10 -14 9 -7 -2z"/>
<path d="M1693 937 c-22 -22 -31 -57 -15 -57 15 0 38 25 50 53 15 34 -3 36
-35 4z"/>
<path d="M1281 900 c-24 -18 -39 -70 -21 -70 7 0 5 -6 -5 -16 -8 -9 -22 -13
-30 -10 -19 7 -30 -11 -16 -28 6 -7 8 -16 4 -19 -3 -4 6 -7 20 -7 15 0 27 5
27 11 0 5 5 7 10 4 14 -9 12 9 -2 24 -11 10 -9 12 7 10 11 -2 38 10 59 26 58
44 68 42 65 -13 -1 -26 -9 -54 -16 -64 -13 -14 -10 -22 20 -67 20 -28 37 -55
39 -60 1 -4 13 -11 25 -15 18 -6 23 -1 33 28 19 58 119 136 175 136 14 0 25 3
25 8 0 14 -39 32 -57 25 -14 -5 -16 -3 -6 7 9 10 9 19 -3 43 -9 16 -14 37 -11
47 3 13 0 17 -9 13 -7 -2 -14 -17 -16 -31 -2 -15 -7 -25 -13 -22 -5 3 -9 10
-9 17 1 6 -4 9 -12 6 -7 -2 -10 -12 -7 -21 5 -14 3 -15 -8 -4 -19 18 -49 15
-49 -5 0 -12 -11 -6 -41 22 -23 22 -38 33 -34 25 7 -12 6 -13 -6 -4 -23 19
-116 21 -138 4z m277 -80 c-7 -10 -14 -18 -15 -16 -6 6 9 36 18 36 5 0 4 -9
-3 -20z m-144 -68 c-6 -4 -14 -14 -17 -22 -4 -12 -6 -12 -6 2 -1 9 4 20 9 23
6 4 7 12 4 18 -4 8 -2 7 7 -1 10 -9 10 -15 3 -20z m34 -17 c-3 -3 -9 2 -12 12
-6 14 -5 15 5 6 7 -7 10 -15 7 -18z m41 -6 c-14 -8 -29 -3 -29 11 0 4 9 6 21
3 15 -4 17 -8 8 -14z"/>
<path d="M355 900 c-19 -8 -19 -9 2 -9 12 -1 25 4 28 9 7 12 -2 12 -30 0z"/>
<path d="M1090 840 c38 -27 46 -29 47 -11 1 12 -7 17 -30 19 -25 2 -29 0 -17
-8z"/>
<path d="M910 811 c-8 -5 -40 -17 -70 -26 -30 -9 -72 -24 -93 -33 -40 -16 -41
-18 -20 -86 4 -16 1 -18 -30 -14 -20 2 -35 1 -35 -2 2 -20 -5 -29 -21 -27 -14
1 -17 5 -10 13 6 8 1 11 -20 10 -16 -1 -27 -4 -24 -8 2 -5 -5 -8 -16 -8 -11 0
-36 -9 -56 -20 -35 -20 -35 -20 -25 -1 17 32 12 66 -14 94 -13 14 -22 28 -19
31 3 3 -10 9 -28 14 -20 5 -33 15 -31 22 2 11 0 11 -11 1 -12 -9 -16 -9 -20 1
-3 8 -9 4 -15 -12 -9 -22 -11 -22 -12 -5 0 13 -3 16 -8 8 -4 -6 -20 -16 -35
-22 -25 -10 -27 -8 -27 13 0 31 -9 37 -33 24 -17 -9 -19 -8 -13 8 5 12 4 15
-2 9 -16 -17 -30 -71 -23 -84 5 -7 27 -14 50 -16 23 -2 57 -9 75 -15 42 -13
104 -76 90 -90 -7 -7 -17 -3 -30 12 -15 18 -15 20 -1 9 9 -7 17 -9 17 -3 0 20
-30 21 -41 0 -9 -16 -8 -19 3 -12 11 6 11 5 0 -9 -18 -22 -77 -40 -104 -32
-13 4 -31 9 -42 12 -12 3 -16 1 -12 -6 4 -6 0 -11 -11 -12 -10 -1 -31 -2 -48
-3 -16 -1 -36 3 -44 8 -11 8 -13 8 -8 -1 4 -6 1 -14 -5 -16 -13 -5 29 -9 112
-11 25 0 48 -5 52 -11 5 -6 8 -5 8 3 0 6 5 12 11 12 6 0 9 -8 7 -17 -4 -16 3
-18 54 -19 41 -1 58 3 55 11 -8 19 26 56 42 46 22 -14 6 -40 -21 -34 l-23 5
23 -17 c23 -17 58 -13 47 5 -8 13 17 9 28 -5 4 -5 6 5 3 23 -5 37 5 42 19 10
9 -19 17 -23 53 -21 33 1 42 -2 43 -15 0 -14 2 -13 8 3 5 13 3 24 -6 31 -24
16 9 39 36 25 18 -10 19 -13 6 -39 -16 -30 -7 -39 24 -22 27 14 26 24 -4 54
-14 14 -25 31 -25 38 1 7 16 -5 35 -26 25 -28 35 -35 36 -23 1 10 3 22 4 27 1
6 3 16 4 24 0 7 10 16 22 19 12 3 18 10 15 15 -4 6 3 8 16 5 19 -4 20 -3 8 6
-8 6 -11 11 -6 11 5 0 18 -7 28 -17 11 -10 18 -12 18 -4 0 8 11 7 36 -4 46
-19 44 -19 44 10 0 25 -31 65 -50 65 -26 0 -5 22 45 46 32 16 55 34 55 43 0
12 2 13 8 4 7 -10 12 -10 26 0 14 10 15 14 5 15 -8 1 -25 4 -39 7 -14 3 -32 1
-40 -4z"/>
<path d="M1311 785 l-20 -35 32 -14 c37 -15 43 -9 45 44 2 33 -1 40 -17 40
-11 0 -28 -15 -40 -35z"/>
<path d="M40 700 c-14 -9 -7 -15 14 -11 5 1 13 -4 18 -11 7 -9 8 -8 6 6 -4 23
-18 29 -38 16z"/>
<path d="M936 684 c-9 -24 -7 -44 5 -44 5 0 7 6 4 13 -4 6 0 4 8 -6 10 -12 17
-14 22 -8 3 6 3 11 -2 11 -4 0 -1 5 7 11 12 8 11 9 -5 7 -14 -2 -20 2 -19 15
2 21 -12 22 -20 1z"/>
<path d="M1563 680 c-29 -13 -44 -27 -49 -45 -8 -33 0 -41 32 -29 23 8 85 94
67 94 -4 0 -27 -9 -50 -20z"/>
<path d="M1670 686 c0 -11 5 -15 13 -11 6 4 4 0 -6 -8 -17 -14 -17 -15 0 -36
22 -26 86 -39 108 -21 8 7 15 22 15 35 0 25 -29 41 -90 51 -33 5 -40 4 -40
-10z"/>
<path d="M98 673 c7 -3 16 -2 19 1 4 3 -2 6 -13 5 -11 0 -14 -3 -6 -6z"/>
<path d="M1595 623 c-9 -21 -13 -48 -10 -60 4 -18 2 -21 -12 -16 -15 5 -15 2
3 -16 13 -14 27 -19 37 -15 23 9 21 31 -3 39 -11 3 -20 11 -20 17 0 5 6 8 14
5 27 -10 37 19 27 76 -3 19 -22 3 -36 -30z"/>
<path d="M2315 630 c-3 -5 -1 -10 4 -10 6 0 11 5 11 10 0 6 -2 10 -4 10 -3 0
-8 -4 -11 -10z"/>
<path d="M14 595 c-19 -14 -19 -14 3 -15 30 0 54 10 47 21 -8 13 -28 11 -50
-6z"/>
<path d="M302 584 c10 -10 20 -16 22 -13 3 3 -5 11 -17 18 -21 13 -21 12 -5
-5z"/>
<path d="M1111 586 c-11 -13 -16 -14 -22 -4 -6 8 -9 9 -9 2 0 -7 -12 -15 -27
-19 -15 -3 -31 -12 -35 -18 -13 -20 -8 -71 7 -91 8 -11 15 -30 15 -42 0 -13 5
-26 10 -29 14 -9 12 -25 -2 -22 -7 1 -14 -8 -16 -20 -5 -36 -19 -27 -19 12 0
55 -19 66 -38 22 -16 -39 -26 -49 -18 -18 3 10 0 22 -6 26 -21 12 -68 -6 -81
-30 -13 -24 -14 -24 -27 -5 -8 11 -18 20 -22 20 -13 0 -131 -82 -131 -91 0 -4
-3 -14 -6 -23 -4 -10 0 -14 14 -13 13 1 18 6 14 16 -6 15 9 10 38 -15 12 -10
18 -10 33 1 10 7 18 17 18 22 0 4 7 7 15 5 8 -2 14 3 14 10 0 9 3 9 11 1 6 -6
19 -9 28 -6 11 4 8 -3 -8 -21 l-25 -27 42 15 c23 8 42 13 42 9 0 -3 6 0 13 6
8 6 16 8 19 6 3 -3 9 9 13 27 6 29 8 31 15 13 5 -11 9 -15 10 -10 0 6 5 2 10
-7 9 -15 13 -15 40 -1 17 8 29 22 29 31 -1 15 -2 15 -6 0 -2 -10 -11 -18 -18
-18 -11 0 -9 9 7 36 13 22 26 33 35 30 8 -3 26 -6 39 -6 18 0 24 -5 24 -20 0
-52 45 -100 100 -106 36 -4 107 -36 93 -41 -7 -3 -13 -11 -13 -19 0 -8 -4 -14
-9 -14 -5 0 -13 -9 -16 -20 -4 -13 -16 -20 -33 -21 -24 0 -25 -1 -7 -9 19 -7
18 -9 -8 -19 -40 -16 -68 -14 -61 3 4 11 0 13 -15 9 -12 -3 -21 -9 -21 -14 0
-10 15 -14 131 -34 125 -21 183 -36 168 -45 -7 -5 174 -9 402 -9 228 -1 408 3
401 7 -7 5 -23 8 -35 7 -12 -1 -30 8 -40 22 -10 13 -29 23 -43 23 -13 0 -24 4
-24 9 0 5 -9 7 -20 4 -14 -4 -20 0 -20 12 0 19 -25 47 -34 38 -3 -4 -6 -1 -6
6 0 8 -7 11 -15 7 -9 -3 -18 1 -22 10 -5 12 -7 13 -14 3 -6 -11 -15 -8 -39 10
-20 14 -41 21 -56 18 -13 -2 -32 2 -41 9 -10 7 -26 14 -35 14 -20 0 -23 11 -8
26 5 5 6 15 2 21 -9 15 -109 36 -124 27 -6 -4 -14 -1 -19 7 -6 11 -12 10 -28
-6 -12 -10 -24 -15 -29 -11 -4 5 3 15 16 23 26 18 29 38 7 47 -10 3 -14 14
-12 28 2 13 2 17 0 10 -3 -7 -9 -9 -15 -6 -8 5 -9 -3 -5 -26 7 -31 6 -32 -22
-27 -15 3 -33 1 -39 -5 -8 -8 -14 -5 -20 13 -5 13 -7 30 -5 37 3 6 0 12 -6 12
-6 0 -11 -7 -11 -15 0 -8 -7 -15 -16 -15 -9 0 -13 5 -9 13 4 6 0 4 -8 -5 -8
-10 -17 -15 -20 -11 -4 3 -7 2 -7 -3 0 -6 -6 -19 -14 -30 -14 -18 -15 -17 -14
14 1 18 4 28 8 22 5 -8 9 -8 12 2 3 7 -5 23 -17 36 l-22 24 -19 -24 c-25 -31
-54 -25 -54 11 0 36 -9 44 -28 25 -9 -9 -17 -12 -21 -6 -3 6 -22 13 -41 15
-19 3 -37 6 -39 6 -2 1 5 13 15 29 17 26 17 27 -2 12 -10 -8 -22 -19 -26 -25
-4 -6 -8 -1 -8 9 0 11 12 34 26 53 29 38 27 51 -5 33 -14 -7 -21 -7 -21 0 0 5
5 10 10 10 6 0 10 5 10 10 0 6 -7 10 -16 10 -9 0 -12 5 -8 13 6 10 4 10 -7 0
-18 -17 -27 -16 -31 4 -3 15 -4 15 -17 -1z m294 -216 c3 -5 -1 -10 -9 -10 -9
0 -16 5 -16 10 0 6 4 10 9 10 6 0 13 -4 16 -10z m-641 -116 c3 -8 2 -12 -4 -9
-6 3 -10 10 -10 16 0 14 7 11 14 -7z"/>
<path d="M1690 592 c0 -6 9 -12 20 -15 11 -3 20 -3 20 -1 0 2 -9 8 -20 14 -11
6 -20 7 -20 2z"/>
<path d="M1237 573 c-4 -3 -7 -11 -7 -17 0 -6 5 -5 12 2 6 6 9 14 7 17 -3 3
-9 2 -12 -2z"/>
<path d="M1699 553 c-1 -5 -1 -11 0 -15 0 -5 -6 -8 -14 -8 -8 0 -15 5 -15 10
0 6 -7 10 -15 10 -8 0 -15 -5 -15 -11 0 -5 5 -7 10 -4 6 3 10 1 10 -4 0 -6 11
-11 24 -11 13 0 43 -7 66 -15 48 -17 90 -20 90 -6 0 21 -13 41 -26 41 -8 0
-14 5 -14 10 0 14 -70 9 -71 -5 -1 -5 -1 -14 0 -19 1 -5 -5 -4 -13 3 -9 7 -13
17 -10 22 3 5 3 9 0 9 -3 0 -7 -3 -7 -7z"/>
<path d="M565 500 c-16 -7 -17 -9 -3 -9 9 -1 20 4 23 9 7 11 7 11 -20 0z"/>
<path d="M2460 499 c0 -5 5 -7 10 -4 6 3 10 8 10 11 0 2 -4 4 -10 4 -5 0 -10
-5 -10 -11z"/>
<path d="M1235 490 c-3 -5 -2 -10 4 -10 5 0 13 5 16 10 3 6 2 10 -4 10 -5 0
-13 -4 -16 -10z"/>
<path d="M1401 477 c2 -1 13 -9 24 -17 19 -14 19 -14 6 3 -7 9 -18 17 -24 17
-6 0 -8 -1 -6 -3z"/>
<path d="M2094 447 c4 -15 2 -16 -10 -6 -8 6 -14 8 -14 5 0 -4 -9 -2 -20 4
-16 8 -18 8 -14 -4 3 -8 -3 -19 -15 -26 -25 -13 -29 -45 -5 -36 8 3 22 0 29
-8 12 -12 9 -15 -20 -20 -37 -7 -47 -29 -19 -40 14 -5 15 -4 4 9 -11 13 -10
14 4 9 10 -4 14 -13 11 -23 -5 -16 31 -48 42 -37 3 3 14 -5 25 -17 11 -12 16
-16 12 -8 -5 9 -3 12 4 7 7 -4 12 -14 12 -22 0 -8 8 -14 18 -14 10 0 33 -16
52 -35 18 -19 37 -32 41 -29 4 2 10 0 14 -6 3 -5 15 -10 26 -10 10 0 19 -5 19
-11 0 -6 7 -8 16 -5 8 3 13 2 10 -3 -5 -8 34 -24 42 -17 4 5 -106 109 -129
122 -11 5 -17 12 -14 15 3 3 -8 23 -25 44 -35 44 -37 56 -10 80 19 18 20 17
20 -2 0 -35 100 -78 125 -54 6 5 38 11 73 14 l63 5 -15 -23 c-15 -22 -14 -24
15 -34 19 -7 38 -7 55 -1 14 6 23 6 20 1 -7 -11 11 -26 42 -35 22 -7 22 -6 22
73 0 75 -2 81 -20 81 -11 0 -23 7 -26 15 -4 9 -11 15 -18 14 -22 -3 -76 14
-70 22 3 5 1 9 -5 9 -18 0 -41 -12 -41 -22 0 -5 5 -6 12 -2 7 4 8 3 4 -4 -10
-16 -12 -16 -40 13 -25 25 -43 34 -32 16 9 -13 -23 -22 -42 -12 -10 6 -20 4
-30 -5 -7 -8 -19 -14 -25 -13 -9 0 -8 2 1 6 17 7 15 30 -3 30 -8 0 -15 -5 -15
-11 0 -5 -7 -1 -15 10 -13 17 -14 17 -15 2 0 -16 -3 -16 -40 -3 -38 13 -40 13
-40 -5 0 -21 -15 -27 -25 -10 -3 6 -1 10 4 10 6 0 11 4 11 8 0 4 -9 8 -21 8
-15 0 -19 -5 -15 -19z"/>
<path d="M1642 403 c-2 -26 5 -28 29 -10 15 11 15 14 -5 23 -19 9 -22 7 -24
-13z"/>
<path d="M1346 401 c-4 -5 -2 -12 3 -15 5 -4 12 -2 15 3 4 5 2 12 -3 15 -5 4
-12 2 -15 -3z"/>
<path d="M637 256 c-4 -10 -1 -13 9 -9 15 6 19 23 5 23 -5 0 -11 -7 -14 -14z"/>
<path d="M462 241 c-80 -18 -110 -29 -81 -33 16 -1 32 -5 39 -8 17 -8 60 -7
60 1 0 6 5 7 10 4 6 -3 10 -2 10 3 0 5 22 12 50 16 49 7 69 19 50 31 -5 3 -10
1 -10 -5 0 -7 -6 -8 -19 0 -11 5 -21 10 -23 9 -2 0 -40 -9 -86 -18z"/>
<path d="M1234 209 c-9 -15 -2 -18 20 -9 17 6 18 7 3 13 -9 3 -19 2 -23 -4z"/>
<path d="M770 186 c0 -9 5 -16 10 -16 6 0 10 4 10 9 0 6 -4 13 -10 16 -5 3
-10 -1 -10 -9z"/>
<path d="M2593 125 c0 -33 2 -45 4 -27 2 18 2 45 0 60 -2 15 -4 0 -4 -33z"/>
<path d="M708 163 c7 -3 16 -2 19 1 4 3 -2 6 -13 5 -11 0 -14 -3 -6 -6z"/>
<path d="M330 109 c0 -5 5 -7 10 -4 6 3 10 8 10 11 0 2 -4 4 -10 4 -5 0 -10
-5 -10 -11z"/>
<path d="M2310 71 c0 -5 8 -15 18 -22 15 -12 16 -12 5 2 -7 9 -10 19 -6 22 3
4 1 7 -5 7 -7 0 -12 -4 -12 -9z"/>
<path d="M2398 23 c6 -2 18 -2 25 0 6 3 1 5 -13 5 -14 0 -19 -2 -12 -5z"/>
<path d="M2480 26 c0 -2 7 -7 16 -10 8 -3 12 -2 9 4 -6 10 -25 14 -25 6z"/>
<path d="M1380 10 c14 -4 34 -8 45 -8 l20 -1 -20 9 c-11 5 -31 8 -45 8 l-25 0
25 -8z"/>
<path d="M1303 3 c9 -2 25 -2 35 0 9 3 1 5 -18 5 -19 0 -27 -2 -17 -5z"/>
</g>
</svg>
